<?xml version="1.0" standalone="no"?>
<!DOCTYPE svg PUBLIC "-//W3C//DTD SVG 20010904//EN"
 "http://www.w3.org/TR/2001/REC-SVG-20010904/DTD/svg10.dtd">
<svg version="1.0" xmlns="http://www.w3.org/2000/svg"
 width="987.000000pt" height="298.000000pt" viewBox="0 0 987.000000 298.000000"
 preserveAspectRatio="xMidYMid meet">

<g transform="translate(0.000000,298.000000) scale(0.100000,-0.100000)"
fill="#000000" stroke="none">
<path d="M0 1490 l0 -1490 4935 0 4935 0 0 1490 0 1490 -4935 0 -4935 0 0
-1490z m2138 790 c99 -16 167 -46 226 -101 67 -61 76 -82 45 -115 -30 -32 -56
-30 -94 5 -72 70 -209 109 -320 91 -216 -35 -345 -231 -345 -525 0 -247 87
-422 250 -498 55 -26 76 -31 145 -31 69 -1 89 3 145 30 40 19 90 54 129 92 35
34 70 62 77 62 7 0 26 -11 41 -24 l28 -25 -19 -36 c-28 -52 -127 -140 -197
-175 -229 -116 -526 -13 -652 227 -63 121 -82 206 -82 378 0 167 18 251 75
365 56 110 178 221 281 255 98 33 173 40 267 25z m2297 -14 c28 -13 61 -35 74
-50 21 -22 23 -29 13 -51 -7 -14 -22 -30 -35 -36 -20 -9 -33 -6 -79 20 -61 35
-86 38 -128 16 -43 -22 -51 -66 -48 -282 l3 -188 97 -3 c90 -3 97 -4 104 -25
7 -21 7 -21 14 -2 6 16 18 21 71 25 l64 5 5 150 5 150 28 9 c17 6 37 6 55 0
l27 -9 5 -150 5 -150 100 -5 100 -5 0 -50 0 -50 -103 -3 -103 -3 3 -230 c3
-215 4 -232 22 -245 30 -21 59 -17 104 16 49 35 72 38 96 11 23 -26 14 -51
-33 -94 -69 -62 -200 -69 -260 -14 -47 43 -51 70 -51 321 l0 235 -67 3 c-63 3
-68 5 -71 27 l-4 24 -12 -24 c-11 -23 -18 -24 -109 -27 l-97 -3 -2 -577 -3
-577 -55 0 -55 0 -3 577 -2 577 -73 3 -72 3 0 50 0 50 70 5 70 5 5 230 c5 246
9 262 62 312 61 57 176 70 263 29z m1183 -6 c51 -18 164 -91 191 -124 18 -22
1 -62 -34 -78 -22 -10 -31 -6 -84 31 -82 57 -131 73 -226 74 -145 0 -222 -56
-232 -173 -7 -73 13 -131 59 -179 40 -41 84 -63 211 -107 179 -63 250 -111
302 -205 28 -50 30 -61 30 -159 0 -121 -19 -177 -83 -244 -102 -106 -325 -145
-496 -86 -154 53 -239 149 -174 194 31 22 37 21 96 -23 74 -56 138 -75 247
-75 190 0 278 72 279 231 1 64 -2 76 -29 114 -36 50 -116 98 -230 135 -181 60
-294 147 -331 256 -26 78 -24 189 5 255 27 61 93 126 155 154 95 41 240 45
344 9z m2386 20 l26 -10 0 -570 c0 -375 4 -578 10 -591 14 -25 34 -24 77 2 28
17 36 19 49 8 31 -26 35 -46 13 -73 -30 -38 -77 -59 -134 -59 -66 0 -110 24
-126 67 l-13 35 -39 -35 c-54 -50 -100 -67 -178 -66 -73 0 -118 16 -167 57
-130 109 -134 433 -7 583 64 77 197 110 308 78 31 -9 63 -19 72 -22 13 -5 15
28 15 290 l0 297 23 9 c29 12 41 12 71 0z m-6919 -35 c116 -30 178 -100 191
-216 15 -128 -57 -241 -202 -316 l-76 -40 64 -6 c129 -14 232 -89 259 -191 17
-63 5 -178 -26 -241 -47 -98 -154 -177 -282 -210 -58 -15 -413 -22 -447 -9
-14 6 -16 69 -16 618 0 337 3 616 7 619 3 4 110 7 238 7 174 0 245 -4 290 -15z
m7359 -175 c30 -29 28 -106 -3 -131 -30 -24 -82 -24 -112 -1 -17 15 -22 29
-22 65 0 25 6 53 13 63 32 37 88 39 124 4z m-2246 -76 c21 -14 22 -22 22 -160
l0 -144 95 0 c92 0 96 -1 107 -25 8 -18 9 -35 2 -53 -9 -27 -11 -27 -107 -30
l-97 -3 0 -229 c0 -194 2 -231 16 -244 28 -28 59 -20 135 35 24 18 68 3 75
-25 8 -33 -19 -71 -73 -103 -35 -20 -57 -26 -108 -26 -81 0 -122 23 -152 83
-22 42 -23 55 -23 277 l0 233 -57 0 c-76 0 -85 7 -81 61 l3 44 68 3 67 3 0
150 c0 146 1 150 23 159 33 13 60 12 85 -6z m-3143 -298 c31 -20 33 -58 5 -86
-23 -23 -29 -23 -85 -10 -75 18 -148 -16 -201 -91 l-29 -42 -5 -236 -5 -236
-34 -3 c-19 -2 -44 -1 -58 2 l-23 6 2 353 3 352 55 0 55 0 5 -49 5 -48 20 22
c29 32 72 61 114 77 45 17 143 11 176 -11z m526 4 c56 -19 62 -20 73 -5 9 12
25 15 61 13 l50 -3 5 -298 c4 -250 7 -299 20 -307 21 -14 29 -13 66 11 37 23
68 15 79 -20 21 -68 -130 -130 -223 -92 -28 12 -62 61 -62 90 0 7 -15 -5 -32
-25 -71 -81 -208 -102 -307 -48 -101 54 -142 146 -142 313 0 123 20 202 69
274 73 105 207 143 343 97z m5561 -7 c61 -28 124 -92 156 -162 35 -74 43 -233
17 -314 -83 -262 -396 -319 -551 -101 -45 63 -66 136 -66 234 0 177 78 303
217 353 63 22 162 18 227 -10z m-2432 -255 c5 -251 6 -268 26 -295 30 -41 87
-57 148 -44 62 14 101 43 137 99 l29 46 0 221 c0 159 3 224 12 233 16 16 93
15 107 -1 7 -9 12 -110 13 -302 3 -261 5 -289 20 -299 13 -8 23 -8 35 0 10 6
28 17 40 24 19 12 24 12 42 -4 42 -38 16 -88 -61 -121 -48 -19 -91 -19 -134 1
-35 17 -64 58 -64 90 0 12 -13 5 -46 -25 -61 -57 -104 -74 -190 -74 -118 1
-191 48 -223 142 -12 38 -16 563 -4 575 4 4 30 6 58 4 l50 -3 5 -267z m1728
260 c9 -9 12 -89 12 -299 0 -330 0 -331 73 -291 37 20 42 21 64 7 76 -50 -51
-147 -165 -126 -53 10 -79 33 -92 80 -15 54 -13 614 2 629 7 7 30 12 53 12 23
0 46 -5 53 -12z"/>
<path d="M7686 1596 c-94 -35 -131 -110 -131 -261 0 -81 5 -109 22 -147 55
-121 215 -118 300 6 l33 48 0 158 0 158 -42 21 c-59 27 -134 35 -182 17z"/>
<path d="M670 1941 l0 -211 118 0 c150 0 203 15 270 75 59 53 86 114 86 192 0
63 -22 99 -80 128 -34 17 -63 20 -216 23 l-178 4 0 -211z"/>
<path d="M678 1615 c-5 -5 -8 -118 -8 -252 l0 -243 113 0 c62 0 140 5 173 11
123 22 211 99 235 203 30 135 -33 237 -164 266 -63 14 -339 26 -349 15z"/>
<path d="M3427 1596 c-72 -27 -107 -78 -127 -186 -23 -125 17 -262 84 -294 80
-38 178 -5 234 78 l32 49 -2 161 -3 161 -35 17 c-51 24 -137 31 -183 14z"/>
<path d="M8971 1600 c-52 -12 -83 -41 -116 -105 -26 -51 -29 -69 -29 -145 0
-74 4 -94 27 -143 37 -75 74 -100 152 -105 45 -2 69 2 95 16 117 64 142 321
41 436 -35 40 -110 60 -170 46z"/>
</g>
</svg>
