<?xml version="1.0" standalone="no"?>
<!DOCTYPE svg PUBLIC "-//W3C//DTD SVG 20010904//EN"
 "http://www.w3.org/TR/2001/REC-SVG-20010904/DTD/svg10.dtd">
<svg version="1.0" xmlns="http://www.w3.org/2000/svg"
 width="959.000000pt" height="275.000000pt" viewBox="0 0 959.000000 275.000000"
 preserveAspectRatio="xMidYMid meet">

<g transform="translate(0.000000,275.000000) scale(0.100000,-0.100000)"
fill="#000000" stroke="none">
<path d="M4160 2179 c-51 -15 -97 -54 -122 -102 -21 -39 -23 -58 -26 -264 l-4
-223 -64 0 c-52 0 -65 -3 -74 -19 -30 -58 -1 -91 81 -91 l59 0 0 -568 c0 -428
3 -571 12 -580 20 -20 86 -15 98 7 6 13 10 213 10 580 l0 561 89 0 c102 0 114
8 109 67 l-3 38 -97 3 -98 3 0 217 c0 205 1 220 20 240 38 41 114 42 170 2 38
-27 70 -23 89 12 15 25 14 29 -9 53 -54 58 -163 87 -240 64z"/>
<path d="M1820 2166 c-186 -53 -318 -197 -376 -411 -27 -99 -27 -341 0 -440
56 -208 185 -354 358 -406 56 -17 88 -21 166 -17 133 5 206 39 309 143 75 77
86 101 56 127 -37 31 -43 29 -115 -39 -92 -87 -148 -115 -244 -121 -257 -16
-434 200 -434 532 0 240 89 420 248 498 62 31 73 33 167 32 120 0 188 -23 260
-86 46 -40 48 -41 73 -25 44 26 39 56 -14 110 -81 80 -184 117 -324 116 -47 0
-105 -6 -130 -13z"/>
<path d="M5211 2159 c-90 -29 -172 -111 -196 -194 -37 -126 -1 -259 94 -348
59 -55 102 -78 254 -133 197 -72 247 -122 247 -249 -1 -170 -104 -245 -321
-233 -96 6 -164 31 -233 86 -42 34 -65 32 -87 -9 -14 -26 7 -58 69 -106 80
-61 141 -77 292 -78 120 0 142 3 194 24 72 29 143 93 176 158 19 37 25 68 28
139 9 199 -64 286 -314 378 -154 56 -193 76 -237 125 -55 61 -71 144 -43 224
27 76 89 115 194 124 97 8 171 -10 249 -63 36 -24 73 -44 83 -44 21 0 50 31
50 53 0 24 -76 84 -159 125 -69 34 -82 37 -175 39 -80 2 -114 -1 -165 -18z"/>
<path d="M7822 2168 c-9 -9 -12 -84 -12 -304 l0 -292 -57 20 c-37 13 -82 20
-124 20 -198 -1 -312 -163 -296 -420 7 -116 29 -175 86 -232 96 -96 244 -96
343 0 44 42 48 44 54 26 18 -67 55 -96 124 -96 50 0 98 19 128 53 42 45 0 97
-50 63 -27 -19 -74 -21 -85 -3 -4 6 -10 273 -13 592 l-5 580 -40 3 c-23 2 -46
-3 -53 -10z m-67 -679 l55 -20 0 -171 c0 -169 0 -170 -27 -208 -99 -137 -282
-123 -325 23 -18 63 -15 203 5 263 18 53 64 106 107 123 42 17 126 12 185 -10z"/>
<path d="M463 2149 c-10 -10 -13 -146 -13 -610 0 -530 2 -599 16 -613 21 -22
308 -23 418 -1 202 38 336 183 336 362 0 91 -17 141 -66 189 -47 48 -123 79
-214 90 l-62 7 70 33 c80 37 163 109 195 169 33 61 31 193 -3 255 -29 51 -72
83 -144 107 -68 22 -514 32 -533 12z m480 -109 c21 -6 52 -24 69 -39 28 -25
32 -36 36 -94 5 -83 -9 -125 -63 -185 -67 -74 -119 -93 -281 -99 l-134 -6 0
223 0 223 168 -6 c92 -4 184 -11 205 -17z m8 -539 c124 -38 182 -148 145 -273
-23 -81 -66 -132 -144 -170 -65 -32 -69 -33 -224 -36 l-158 -4 0 252 0 252
173 -5 c94 -2 188 -10 208 -16z"/>
<path d="M8231 1964 c-42 -54 -18 -128 46 -140 26 -5 37 -1 57 19 52 52 20
147 -49 147 -24 0 -39 -7 -54 -26z"/>
<path d="M4500 1881 c-5 -11 -10 -81 -10 -155 l0 -136 -58 0 c-64 0 -82 -11
-82 -51 0 -42 24 -59 85 -59 l53 0 4 -237 c3 -219 5 -241 24 -273 58 -100 198
-108 292 -18 36 36 40 58 14 81 -24 22 -25 22 -74 -13 -50 -36 -111 -41 -128
-11 -6 12 -10 109 -10 245 l0 226 88 0 c48 0 92 4 99 8 18 11 26 58 13 81 -10
19 -20 21 -105 21 l-95 0 0 143 c0 98 -4 147 -12 155 -20 20 -86 15 -98 -7z"/>
<path d="M6007 1893 c-4 -3 -7 -73 -7 -155 l0 -148 -64 0 c-36 0 -68 -5 -71
-11 -12 -19 -7 -81 7 -90 7 -5 39 -9 71 -9 l57 0 0 -237 c0 -261 4 -284 62
-326 34 -25 122 -34 172 -17 86 28 136 117 81 142 -21 10 -29 8 -48 -9 -53
-49 -115 -58 -141 -21 -13 19 -16 60 -16 245 l0 223 86 0 c103 0 124 9 124 53
0 50 -13 57 -117 57 l-93 0 0 149 c0 164 1 161 -64 161 -18 0 -36 -3 -39 -7z"/>
<path d="M2806 1608 c-52 -11 -99 -41 -136 -86 l-30 -37 0 51 c0 57 -12 74
-51 74 -62 0 -59 21 -59 -361 l0 -349 26 -6 c15 -4 39 -3 53 2 l26 9 5 237 5
236 31 44 c18 23 52 53 75 66 39 21 52 23 121 17 71 -6 77 -5 88 15 6 12 10
31 8 43 -5 38 -89 61 -162 45z"/>
<path d="M3316 1609 c-102 -16 -187 -99 -223 -218 -24 -78 -24 -248 0 -318 51
-146 176 -212 322 -172 25 7 58 29 88 59 39 39 49 45 54 32 17 -56 29 -75 54
-87 83 -44 241 22 216 90 -10 25 -37 29 -67 11 -36 -20 -76 -21 -84 0 -3 9 -6
141 -6 294 0 240 -2 281 -16 294 -22 22 -70 20 -92 -4 -18 -19 -19 -19 -68 -1
-62 23 -116 29 -178 20z m197 -122 l37 -16 0 -174 0 -174 -30 -41 c-71 -98
-209 -117 -279 -37 -39 45 -51 90 -51 196 0 129 35 209 108 249 45 25 156 23
215 -3z"/>
<path d="M8863 1609 c-136 -26 -228 -130 -255 -287 -39 -232 103 -432 307
-432 252 0 393 297 265 557 -61 123 -187 188 -317 162z m125 -114 c53 -23 79
-51 102 -112 25 -67 27 -180 3 -252 -45 -142 -208 -187 -307 -85 -46 47 -66
110 -66 205 0 123 39 206 114 240 50 23 105 24 154 4z"/>
<path d="M6505 1593 c-15 -15 -17 -44 -13 -277 3 -239 5 -265 24 -306 12 -25
32 -55 45 -67 53 -48 166 -67 252 -41 22 7 64 34 93 61 30 27 54 44 54 37 0
-28 35 -82 61 -95 33 -18 96 -19 136 -4 64 24 93 80 57 110 -14 11 -22 10 -56
-10 -37 -21 -41 -21 -64 -6 l-24 15 0 288 c0 309 -1 312 -51 312 -61 0 -59 9
-59 -239 l0 -227 -29 -47 c-42 -65 -98 -100 -170 -105 -41 -3 -67 1 -89 12
-59 30 -62 48 -62 325 0 214 -2 252 -16 265 -20 21 -68 20 -89 -1z"/>
<path d="M8243 1603 c-20 -7 -18 -601 1 -648 33 -78 158 -88 239 -17 21 19 22
55 1 73 -14 11 -21 10 -46 -4 -35 -20 -69 -22 -86 -5 -9 9 -12 89 -12 298 0
209 -3 289 -12 298 -12 12 -62 15 -85 5z"/>
</g>
</svg>
